<?xml version="1.0" encoding="UTF-8" standalone="no"?>
<!DOCTYPE svg PUBLIC "-//W3C//DTD SVG 1.1//EN"
 "http://www.w3.org/Graphics/SVG/1.1/DTD/svg11.dtd">
<!-- Generated by graphviz version 2.38.0 (20140413.2041)
 -->
<!-- Title: G Pages: 1 -->
<svg width="1111pt" height="509pt"
 viewBox="0.00 0.00 1111.16 509.49" xmlns="http://www.w3.org/2000/svg" xmlns:xlink="http://www.w3.org/1999/xlink">
<g id="graph0" class="graph" transform="scale(1 1) rotate(0) translate(4 505.487)">
<title>G</title><style>.edge>path:hover{stroke-width:8}</style>
<polygon fill="white" stroke="none" points="-4,4 -4,-505.487 1107.16,-505.487 1107.16,4 -4,4"/>
<!-- janus_devices_devicebase -->
<g id="node1" class="node"><title>janus_devices_devicebase</title><style>.edge>path:hover{stroke-width:8}</style>
<ellipse fill="#c24747" stroke="black" cx="122.679" cy="-400.496" rx="45.9239" ry="28.9828"/>
<text text-anchor="middle" x="122.679" y="-408.996" font-family="Helvetica,sans-Serif" font-size="10.00" fill="#ffffff">janus.</text>
<text text-anchor="middle" x="122.679" y="-397.996" font-family="Helvetica,sans-Serif" font-size="10.00" fill="#ffffff">devices.</text>
<text text-anchor="middle" x="122.679" y="-386.996" font-family="Helvetica,sans-Serif" font-size="10.00" fill="#ffffff">devicebase</text>
</g>
<!-- janus_devices_fluorescence -->
<g id="node11" class="node"><title>janus_devices_fluorescence</title><style>.edge>path:hover{stroke-width:8}</style>
<ellipse fill="#9d4343" stroke="black" cx="104.679" cy="-212.53" rx="50.41" ry="28.9828"/>
<text text-anchor="middle" x="104.679" y="-221.03" font-family="Helvetica,sans-Serif" font-size="10.00" fill="#ffffff">janus.</text>
<text text-anchor="middle" x="104.679" y="-210.03" font-family="Helvetica,sans-Serif" font-size="10.00" fill="#ffffff">devices.</text>
<text text-anchor="middle" x="104.679" y="-199.03" font-family="Helvetica,sans-Serif" font-size="10.00" fill="#ffffff">fluorescence</text>
</g>
<!-- janus_devices_devicebase&#45;&gt;janus_devices_fluorescence -->
<g id="edge26" class="edge"><title>janus_devices_devicebase&#45;&gt;janus_devices_fluorescence</title><style>.edge>path:hover{stroke-width:8}</style>
<path fill="none" stroke="black" d="M118.335,-371.511C116.706,-360.333 114.946,-347.329 113.679,-335.505 110.686,-307.55 108.381,-275.883 106.854,-251.822"/>
<polygon fill="#c24747" stroke="black" points="110.337,-251.442 106.227,-241.677 103.35,-251.874 110.337,-251.442"/>
</g>
<!-- janus_devices_connector -->
<g id="node19" class="node"><title>janus_devices_connector</title><style>.edge>path:hover{stroke-width:8}</style>
<ellipse fill="#bc2f2f" stroke="black" cx="164.679" cy="-306.513" rx="41.9398" ry="28.9828"/>
<text text-anchor="middle" x="164.679" y="-315.013" font-family="Helvetica,sans-Serif" font-size="10.00" fill="#ffffff">janus.</text>
<text text-anchor="middle" x="164.679" y="-304.013" font-family="Helvetica,sans-Serif" font-size="10.00" fill="#ffffff">devices.</text>
<text text-anchor="middle" x="164.679" y="-293.013" font-family="Helvetica,sans-Serif" font-size="10.00" fill="#ffffff">connector</text>
</g>
<!-- janus_devices_devicebase&#45;&gt;janus_devices_connector -->
<g id="edge25" class="edge"><title>janus_devices_devicebase&#45;&gt;janus_devices_connector</title><style>.edge>path:hover{stroke-width:8}</style>
<path fill="none" stroke="black" d="M135.054,-372.396C139.155,-363.413 143.788,-353.267 148.151,-343.713"/>
<polygon fill="#c24747" stroke="black" points="151.424,-344.97 152.394,-334.42 145.056,-342.063 151.424,-344.97"/>
</g>
<!-- janus_widgets_acq_fluorescence -->
<g id="node2" class="node"><title>janus_widgets_acq_fluorescence</title><style>.edge>path:hover{stroke-width:8}</style>
<ellipse fill="#9d4343" stroke="black" cx="403.679" cy="-306.513" rx="65.1077" ry="28.9828"/>
<text text-anchor="middle" x="403.679" y="-315.013" font-family="Helvetica,sans-Serif" font-size="10.00" fill="#ffffff">janus.</text>
<text text-anchor="middle" x="403.679" y="-304.013" font-family="Helvetica,sans-Serif" font-size="10.00" fill="#ffffff">widgets.</text>
<text text-anchor="middle" x="403.679" y="-293.013" font-family="Helvetica,sans-Serif" font-size="10.00" fill="#ffffff">acq_fluorescence</text>
</g>
<!-- janus_applications_xanes_main -->
<g id="node3" class="node"><title>janus_applications_xanes_main</title><style>.edge>path:hover{stroke-width:8}</style>
<ellipse fill="#633535" stroke="black" cx="634.679" cy="-36.7696" rx="50.41" ry="36.5405"/>
<text text-anchor="middle" x="634.679" y="-50.7696" font-family="Helvetica,sans-Serif" font-size="10.00" fill="#ffffff">janus.</text>
<text text-anchor="middle" x="634.679" y="-39.7696" font-family="Helvetica,sans-Serif" font-size="10.00" fill="#ffffff">applications.</text>
<text text-anchor="middle" x="634.679" y="-28.7696" font-family="Helvetica,sans-Serif" font-size="10.00" fill="#ffffff">xanes.</text>
<text text-anchor="middle" x="634.679" y="-17.7696" font-family="Helvetica,sans-Serif" font-size="10.00" fill="#ffffff">main</text>
</g>
<!-- janus_widgets_acq_fluorescence&#45;&gt;janus_applications_xanes_main -->
<g id="edge35" class="edge"><title>janus_widgets_acq_fluorescence&#45;&gt;janus_applications_xanes_main</title><style>.edge>path:hover{stroke-width:8}</style>
<path fill="none" stroke="black" d="M418.064,-278.219C436.201,-244.236 466.058,-189.858 474.679,-183.539 533.469,-140.451 604.329,-213.808 634.679,-147.539"/>
</g>
<!-- janus_devices_generic -->
<g id="node4" class="node"><title>janus_devices_generic</title><style>.edge>path:hover{stroke-width:8}</style>
<ellipse fill="#a44646" stroke="black" cx="220.679" cy="-212.53" rx="36.5405" ry="28.9828"/>
<text text-anchor="middle" x="220.679" y="-221.03" font-family="Helvetica,sans-Serif" font-size="10.00" fill="#ffffff">janus.</text>
<text text-anchor="middle" x="220.679" y="-210.03" font-family="Helvetica,sans-Serif" font-size="10.00" fill="#ffffff">devices.</text>
<text text-anchor="middle" x="220.679" y="-199.03" font-family="Helvetica,sans-Serif" font-size="10.00" fill="#ffffff">generic</text>
</g>
<!-- janus_devices_generic&#45;&gt;janus_applications_xanes_main -->
<g id="edge28" class="edge"><title>janus_devices_generic&#45;&gt;janus_applications_xanes_main</title><style>.edge>path:hover{stroke-width:8}</style>
<path fill="none" stroke="black" d="M247.421,-192.524C253.505,-188.992 260.117,-185.729 266.679,-183.539 305.651,-170.534 619.686,-185.789 634.679,-147.539"/>
</g>
<!-- janus_widgets_acq -->
<g id="node5" class="node"><title>janus_widgets_acq</title><style>.edge>path:hover{stroke-width:8}</style>
<ellipse fill="#a44646" stroke="black" cx="617.679" cy="-306.513" rx="37.4533" ry="28.9828"/>
<text text-anchor="middle" x="617.679" y="-315.013" font-family="Helvetica,sans-Serif" font-size="10.00" fill="#ffffff">janus.</text>
<text text-anchor="middle" x="617.679" y="-304.013" font-family="Helvetica,sans-Serif" font-size="10.00" fill="#ffffff">widgets.</text>
<text text-anchor="middle" x="617.679" y="-293.013" font-family="Helvetica,sans-Serif" font-size="10.00" fill="#ffffff">acq</text>
</g>
<!-- janus_widgets_acq&#45;&gt;janus_applications_xanes_main -->
<g id="edge34" class="edge"><title>janus_widgets_acq&#45;&gt;janus_applications_xanes_main</title><style>.edge>path:hover{stroke-width:8}</style>
<path fill="none" stroke="black" d="M644.166,-285.88C671.144,-264.818 708.879,-231.923 707.679,-213.53"/>
</g>
<!-- janus_utils_log -->
<g id="node6" class="node"><title>janus_utils_log</title><style>.edge>path:hover{stroke-width:8}</style>
<ellipse fill="#b65353" stroke="black" cx="397.679" cy="-212.53" rx="30.3115" ry="28.9828"/>
<text text-anchor="middle" x="397.679" y="-221.03" font-family="Helvetica,sans-Serif" font-size="10.00" fill="#ffffff">janus.</text>
<text text-anchor="middle" x="397.679" y="-210.03" font-family="Helvetica,sans-Serif" font-size="10.00" fill="#ffffff">utils.</text>
<text text-anchor="middle" x="397.679" y="-199.03" font-family="Helvetica,sans-Serif" font-size="10.00" fill="#ffffff">log</text>
</g>
<!-- janus_utils_log&#45;&gt;janus_applications_xanes_main -->
<g id="edge32" class="edge"><title>janus_utils_log&#45;&gt;janus_applications_xanes_main</title><style>.edge>path:hover{stroke-width:8}</style>
<path fill="none" stroke="black" d="M421.456,-194.088C427.776,-190.112 434.773,-186.262 441.679,-183.539 482.268,-167.539 618.757,-188.158 634.679,-147.539"/>
</g>
<!-- janus_actions_acq_fluorescence -->
<g id="node7" class="node"><title>janus_actions_acq_fluorescence</title><style>.edge>path:hover{stroke-width:8}</style>
<ellipse fill="#b34c4c" stroke="black" cx="738.679" cy="-306.513" rx="65.1077" ry="28.9828"/>
<text text-anchor="middle" x="738.679" y="-315.013" font-family="Helvetica,sans-Serif" font-size="10.00" fill="#ffffff">janus.</text>
<text text-anchor="middle" x="738.679" y="-304.013" font-family="Helvetica,sans-Serif" font-size="10.00" fill="#ffffff">actions.</text>
<text text-anchor="middle" x="738.679" y="-293.013" font-family="Helvetica,sans-Serif" font-size="10.00" fill="#ffffff">acq_fluorescence</text>
</g>
<!-- janus_actions_acq_fluorescence&#45;&gt;janus_applications_xanes_main -->
<g id="edge3" class="edge"><title>janus_actions_acq_fluorescence&#45;&gt;janus_applications_xanes_main</title><style>.edge>path:hover{stroke-width:8}</style>
<path fill="none" stroke="black" d="M725.27,-278.106C717.574,-260.21 709.149,-236.064 707.679,-213.53"/>
</g>
<!-- janus_devices -->
<g id="node8" class="node"><title>janus_devices</title><style>.edge>path:hover{stroke-width:8}</style>
<ellipse fill="#b65353" stroke="black" cx="527.679" cy="-212.53" rx="44.3" ry="18"/>
<text text-anchor="middle" x="527.679" y="-210.03" font-family="Helvetica,sans-Serif" font-size="10.00" fill="#ffffff">janus.devices</text>
</g>
<!-- janus_devices&#45;&gt;janus_applications_xanes_main -->
<g id="edge21" class="edge"><title>janus_devices&#45;&gt;janus_applications_xanes_main</title><style>.edge>path:hover{stroke-width:8}</style>
<path fill="none" stroke="black" d="M552.785,-197.539C583.866,-180.07 632.956,-151.935 634.679,-147.539"/>
</g>
<!-- janus_widgets -->
<g id="node9" class="node"><title>janus_widgets</title><style>.edge>path:hover{stroke-width:8}</style>
<ellipse fill="#ce3b3b" stroke="black" cx="634.679" cy="-212.53" rx="44.978" ry="18"/>
<text text-anchor="middle" x="634.679" y="-210.03" font-family="Helvetica,sans-Serif" font-size="10.00" fill="#ffffff">janus.widgets</text>
</g>
<!-- janus_widgets&#45;&gt;janus_applications_xanes_main -->
<g id="edge33" class="edge"><title>janus_widgets&#45;&gt;janus_applications_xanes_main</title><style>.edge>path:hover{stroke-width:8}</style>
<path fill="none" stroke="black" d="M631.364,-194.33C629.581,-181.074 628.8,-162.537 634.679,-147.539"/>
</g>
<!-- janus_actions_acq -->
<g id="node10" class="node"><title>janus_actions_acq</title><style>.edge>path:hover{stroke-width:8}</style>
<ellipse fill="#b34c4c" stroke="black" cx="857.679" cy="-306.513" rx="36.125" ry="28.9828"/>
<text text-anchor="middle" x="857.679" y="-315.013" font-family="Helvetica,sans-Serif" font-size="10.00" fill="#ffffff">janus.</text>
<text text-anchor="middle" x="857.679" y="-304.013" font-family="Helvetica,sans-Serif" font-size="10.00" fill="#ffffff">actions.</text>
<text text-anchor="middle" x="857.679" y="-293.013" font-family="Helvetica,sans-Serif" font-size="10.00" fill="#ffffff">acq</text>
</g>
<!-- janus_actions_acq&#45;&gt;janus_applications_xanes_main -->
<g id="edge2" class="edge"><title>janus_actions_acq&#45;&gt;janus_applications_xanes_main</title><style>.edge>path:hover{stroke-width:8}</style>
<path fill="none" stroke="black" d="M860.194,-277.382C861.013,-249.582 857.484,-207.796 832.679,-183.539 768.732,-121.003 597.602,-228.935 634.679,-147.539"/>
</g>
<!-- janus_devices_fluorescence&#45;&gt;janus_applications_xanes_main -->
<g id="edge27" class="edge"><title>janus_devices_fluorescence&#45;&gt;janus_applications_xanes_main</title><style>.edge>path:hover{stroke-width:8}</style>
<path fill="none" stroke="black" d="M634.679,-146.539C642.426,-126.777 643.37,-103.399 641.991,-83.3904"/>
<polygon fill="#9d4343" stroke="black" points="645.463,-82.9182 641.082,-73.2714 638.491,-83.5445 645.463,-82.9182"/>
<path fill="none" stroke="black" d="M143.249,-193.695C153.29,-189.726 164.228,-185.978 174.679,-183.539 224.606,-171.889 613.427,-194.194 634.679,-147.539"/>
</g>
<!-- janus_core -->
<g id="node12" class="node"><title>janus_core</title><style>.edge>path:hover{stroke-width:8}</style>
<ellipse fill="#f91010" stroke="black" cx="272.679" cy="-483.487" rx="36.4942" ry="18"/>
<text text-anchor="middle" x="272.679" y="-480.987" font-family="Helvetica,sans-Serif" font-size="10.00" fill="#ffffff">janus.core</text>
</g>
<!-- janus_core&#45;&gt;janus_widgets_acq_fluorescence -->
<g id="edge18" class="edge"><title>janus_core&#45;&gt;janus_widgets_acq_fluorescence</title><style>.edge>path:hover{stroke-width:8}</style>
<path fill="none" stroke="black" d="M738.679,-399.496C802.459,-299.027 592.394,-370.589 478.679,-335.505 472.979,-333.746 467.082,-331.79 461.214,-329.753"/>
<polygon fill="#f91010" stroke="black" points="462.002,-326.318 451.407,-326.267 459.658,-332.914 462.002,-326.318"/>
</g>
<!-- janus_core&#45;&gt;janus_applications_xanes_main -->
<g id="edge11" class="edge"><title>janus_core&#45;&gt;janus_applications_xanes_main</title><style>.edge>path:hover{stroke-width:8}</style>
<path fill="none" stroke="black" d="M738.679,-399.496C780.904,-333.627 842.329,-385.299 902.679,-335.505 904.225,-334.23 981.032,-215.008 979.679,-213.53"/>
<path fill="none" stroke="black" d="M979.679,-211.53C969.529,-200.438 973.559,-191.298 960.679,-183.539 898.249,-145.928 604.353,-213.815 634.679,-147.539"/>
</g>
<!-- janus_core&#45;&gt;janus_devices_generic -->
<g id="edge14" class="edge"><title>janus_core&#45;&gt;janus_devices_generic</title><style>.edge>path:hover{stroke-width:8}</style>
<path fill="none" stroke="black" d="M269.347,-465.254C261.079,-422.489 239.465,-310.696 228.026,-251.529"/>
<polygon fill="#f91010" stroke="black" points="231.415,-250.621 226.081,-241.467 224.543,-251.949 231.415,-250.621"/>
</g>
<!-- janus_core&#45;&gt;janus_widgets_acq -->
<g id="edge17" class="edge"><title>janus_core&#45;&gt;janus_widgets_acq</title><style>.edge>path:hover{stroke-width:8}</style>
<path fill="none" stroke="black" d="M738.679,-399.496C744.489,-390.344 692.984,-355.041 655.351,-330.931"/>
<polygon fill="#f91010" stroke="black" points="656.921,-327.781 646.604,-325.367 653.164,-333.688 656.921,-327.781"/>
</g>
<!-- janus_core&#45;&gt;janus_actions_acq_fluorescence -->
<g id="edge10" class="edge"><title>janus_core&#45;&gt;janus_actions_acq_fluorescence</title><style>.edge>path:hover{stroke-width:8}</style>
<path fill="none" stroke="black" d="M738.679,-399.496C748.696,-383.718 749.554,-363.142 747.534,-345.453"/>
<polygon fill="#f91010" stroke="black" points="750.978,-344.814 746.06,-335.43 744.053,-345.833 750.978,-344.814"/>
</g>
<!-- janus_core&#45;&gt;janus_actions_acq -->
<g id="edge9" class="edge"><title>janus_core&#45;&gt;janus_actions_acq</title><style>.edge>path:hover{stroke-width:8}</style>
<path fill="none" stroke="black" d="M738.679,-399.496C749.521,-382.418 790.827,-352.32 821.751,-331.218"/>
<polygon fill="#f91010" stroke="black" points="823.845,-334.026 830.164,-325.522 819.921,-328.23 823.845,-334.026"/>
</g>
<!-- janus_core&#45;&gt;janus_devices_fluorescence -->
<g id="edge13" class="edge"><title>janus_core&#45;&gt;janus_devices_fluorescence</title><style>.edge>path:hover{stroke-width:8}</style>
<path fill="none" stroke="black" d="M245.147,-471.644C239.112,-469.455 232.72,-467.279 226.679,-465.487 157.215,-444.885 124.103,-474.942 67.6794,-429.487 44.3805,-410.718 2.03787,-336.157 10.6794,-307.513"/>
</g>
<!-- janus_utils_config -->
<g id="node14" class="node"><title>janus_utils_config</title><style>.edge>path:hover{stroke-width:8}</style>
<ellipse fill="#b34c4c" stroke="black" cx="979.679" cy="-306.513" rx="30.3115" ry="28.9828"/>
<text text-anchor="middle" x="979.679" y="-315.013" font-family="Helvetica,sans-Serif" font-size="10.00" fill="#ffffff">janus.</text>
<text text-anchor="middle" x="979.679" y="-304.013" font-family="Helvetica,sans-Serif" font-size="10.00" fill="#ffffff">utils.</text>
<text text-anchor="middle" x="979.679" y="-293.013" font-family="Helvetica,sans-Serif" font-size="10.00" fill="#ffffff">config</text>
</g>
<!-- janus_core&#45;&gt;janus_utils_config -->
<g id="edge16" class="edge"><title>janus_core&#45;&gt;janus_utils_config</title><style>.edge>path:hover{stroke-width:8}</style>
<path fill="none" stroke="black" d="M738.679,-399.496C788.018,-321.775 852.402,-374.744 935.679,-335.505 939.457,-333.725 943.302,-331.677 947.067,-329.517"/>
<polygon fill="#f91010" stroke="black" points="948.886,-332.507 955.638,-324.343 945.268,-326.514 948.886,-332.507"/>
</g>
<!-- janus_widgets_log -->
<g id="node17" class="node"><title>janus_widgets_log</title><style>.edge>path:hover{stroke-width:8}</style>
<ellipse fill="#b34c4c" stroke="black" cx="1065.68" cy="-306.513" rx="37.4533" ry="28.9828"/>
<text text-anchor="middle" x="1065.68" y="-315.013" font-family="Helvetica,sans-Serif" font-size="10.00" fill="#ffffff">janus.</text>
<text text-anchor="middle" x="1065.68" y="-304.013" font-family="Helvetica,sans-Serif" font-size="10.00" fill="#ffffff">widgets.</text>
<text text-anchor="middle" x="1065.68" y="-293.013" font-family="Helvetica,sans-Serif" font-size="10.00" fill="#ffffff">log</text>
</g>
<!-- janus_core&#45;&gt;janus_widgets_log -->
<g id="edge19" class="edge"><title>janus_core&#45;&gt;janus_widgets_log</title><style>.edge>path:hover{stroke-width:8}</style>
<path fill="none" stroke="black" d="M738.679,-399.496C807.095,-291.725 900.176,-382.962 1018.68,-335.505 1022.1,-334.135 1025.56,-332.539 1028.97,-330.815"/>
<polygon fill="#f91010" stroke="black" points="1030.7,-333.859 1037.83,-326.023 1027.37,-327.702 1030.7,-333.859"/>
</g>
<!-- janus_widgets_plot -->
<g id="node18" class="node"><title>janus_widgets_plot</title><style>.edge>path:hover{stroke-width:8}</style>
<ellipse fill="#b34c4c" stroke="black" cx="524.679" cy="-306.513" rx="37.4533" ry="28.9828"/>
<text text-anchor="middle" x="524.679" y="-315.013" font-family="Helvetica,sans-Serif" font-size="10.00" fill="#ffffff">janus.</text>
<text text-anchor="middle" x="524.679" y="-304.013" font-family="Helvetica,sans-Serif" font-size="10.00" fill="#ffffff">widgets.</text>
<text text-anchor="middle" x="524.679" y="-293.013" font-family="Helvetica,sans-Serif" font-size="10.00" fill="#ffffff">plot</text>
</g>
<!-- janus_core&#45;&gt;janus_widgets_plot -->
<g id="edge20" class="edge"><title>janus_core&#45;&gt;janus_widgets_plot</title><style>.edge>path:hover{stroke-width:8}</style>
<path fill="none" stroke="black" d="M738.679,-399.496C781.279,-332.391 643.198,-370.188 571.679,-335.505 568.507,-333.966 565.266,-332.285 562.044,-330.535"/>
<polygon fill="#f91010" stroke="black" points="563.512,-327.345 553.082,-325.483 560.074,-333.443 563.512,-327.345"/>
</g>
<!-- janus_core&#45;&gt;janus_devices_connector -->
<g id="edge12" class="edge"><title>janus_core&#45;&gt;janus_devices_connector</title><style>.edge>path:hover{stroke-width:8}</style>
<path fill="none" stroke="black" d="M251.802,-468.358C232.899,-454.092 206.551,-430.114 196.679,-401.496"/>
</g>
<!-- janus_devices_p11 -->
<g id="node20" class="node"><title>janus_devices_p11</title><style>.edge>path:hover{stroke-width:8}</style>
<ellipse fill="#a44646" stroke="black" cx="312.679" cy="-212.53" rx="36.5405" ry="28.9828"/>
<text text-anchor="middle" x="312.679" y="-221.03" font-family="Helvetica,sans-Serif" font-size="10.00" fill="#ffffff">janus.</text>
<text text-anchor="middle" x="312.679" y="-210.03" font-family="Helvetica,sans-Serif" font-size="10.00" fill="#ffffff">devices.</text>
<text text-anchor="middle" x="312.679" y="-199.03" font-family="Helvetica,sans-Serif" font-size="10.00" fill="#ffffff">p11</text>
</g>
<!-- janus_core&#45;&gt;janus_devices_p11 -->
<g id="edge15" class="edge"><title>janus_core&#45;&gt;janus_devices_p11</title><style>.edge>path:hover{stroke-width:8}</style>
<path fill="none" stroke="black" d="M309.383,-482.626C411.195,-482.08 692.689,-473.942 738.679,-401.496"/>
<path fill="none" stroke="black" d="M738.679,-399.496C837.288,-244.163 458.687,-466.688 329.679,-335.505 308.371,-313.837 305.484,-278.631 307.131,-251.598"/>
<polygon fill="#f91010" stroke="black" points="310.645,-251.573 307.994,-241.316 303.669,-250.988 310.645,-251.573"/>
</g>
<!-- janus_actions -->
<g id="node13" class="node"><title>janus_actions</title><style>.edge>path:hover{stroke-width:8}</style>
<ellipse fill="#b65353" stroke="black" cx="779.679" cy="-212.53" rx="43.6222" ry="18"/>
<text text-anchor="middle" x="779.679" y="-210.03" font-family="Helvetica,sans-Serif" font-size="10.00" fill="#ffffff">janus.actions</text>
</g>
<!-- janus_actions&#45;&gt;janus_applications_xanes_main -->
<g id="edge1" class="edge"><title>janus_actions&#45;&gt;janus_applications_xanes_main</title><style>.edge>path:hover{stroke-width:8}</style>
<path fill="none" stroke="black" d="M752.975,-198.247C743.188,-193.484 731.986,-188.154 721.679,-183.539 683.487,-166.438 619.407,-186.499 634.679,-147.539"/>
</g>
<!-- janus_utils_config&#45;&gt;janus_applications_xanes_main -->
<g id="edge31" class="edge"><title>janus_utils_config&#45;&gt;janus_applications_xanes_main</title><style>.edge>path:hover{stroke-width:8}</style>
<path fill="none" stroke="black" d="M988.398,-278.686C993.206,-258.23 995.419,-230.731 979.679,-213.53"/>
</g>
<!-- janus_utils -->
<g id="node15" class="node"><title>janus_utils</title><style>.edge>path:hover{stroke-width:8}</style>
<ellipse fill="#b65353" stroke="black" cx="915.679" cy="-212.53" rx="35.8171" ry="18"/>
<text text-anchor="middle" x="915.679" y="-210.03" font-family="Helvetica,sans-Serif" font-size="10.00" fill="#ffffff">janus.utils</text>
</g>
<!-- janus_utils&#45;&gt;janus_applications_xanes_main -->
<g id="edge30" class="edge"><title>janus_utils&#45;&gt;janus_applications_xanes_main</title><style>.edge>path:hover{stroke-width:8}</style>
<path fill="none" stroke="black" d="M894.564,-197.507C885.933,-192.372 875.647,-186.981 865.679,-183.539 816.572,-166.582 615.719,-195.909 634.679,-147.539"/>
</g>
<!-- janus_const -->
<g id="node16" class="node"><title>janus_const</title><style>.edge>path:hover{stroke-width:8}</style>
<ellipse fill="#e72222" stroke="black" cx="178.679" cy="-483.487" rx="39.3809" ry="18"/>
<text text-anchor="middle" x="178.679" y="-480.987" font-family="Helvetica,sans-Serif" font-size="10.00" fill="#ffffff">janus.const</text>
</g>
<!-- janus_const&#45;&gt;janus_widgets_acq_fluorescence -->
<g id="edge8" class="edge"><title>janus_const&#45;&gt;janus_widgets_acq_fluorescence</title><style>.edge>path:hover{stroke-width:8}</style>
<path fill="none" stroke="black" d="M198.366,-467.735C212.435,-457.156 231.786,-442.528 248.679,-429.487 288.367,-398.851 333.36,-363.36 364.606,-338.588"/>
<polygon fill="#e72222" stroke="black" points="366.981,-341.172 372.64,-332.215 362.631,-335.688 366.981,-341.172"/>
</g>
<!-- janus_const&#45;&gt;janus_devices_generic -->
<g id="edge6" class="edge"><title>janus_const&#45;&gt;janus_devices_generic</title><style>.edge>path:hover{stroke-width:8}</style>
<path fill="none" stroke="black" d="M10.6794,-399.496C-20.5812,-335.8 59.6064,-323.462 113.679,-277.522 134.084,-260.187 159.751,-244.664 180.831,-233.249"/>
<polygon fill="#e72222" stroke="black" points="182.664,-236.238 189.857,-228.459 179.383,-230.055 182.664,-236.238"/>
</g>
<!-- janus_const&#45;&gt;janus_devices_fluorescence -->
<g id="edge5" class="edge"><title>janus_const&#45;&gt;janus_devices_fluorescence</title><style>.edge>path:hover{stroke-width:8}</style>
<path fill="none" stroke="black" d="M10.6794,-305.513C14.6971,-292.196 15.9336,-288.338 24.6794,-277.522 35.6996,-263.893 50.0902,-251.274 63.6233,-240.907"/>
<polygon fill="#e72222" stroke="black" points="65.963,-243.529 71.901,-234.755 61.7872,-237.911 65.963,-243.529"/>
<path fill="none" stroke="black" d="M140.689,-478.171C98.0372,-470.914 32.0005,-451.716 10.6794,-401.496"/>
<path fill="none" stroke="black" d="M10.6794,-399.496C-5.29654,-361.866 -1.12838,-346.652 10.6794,-307.513"/>
</g>
<!-- janus_const&#45;&gt;janus_devices_connector -->
<g id="edge4" class="edge"><title>janus_const&#45;&gt;janus_devices_connector</title><style>.edge>path:hover{stroke-width:8}</style>
<path fill="none" stroke="black" d="M187.691,-465.74C195.395,-449.146 204.148,-423.147 196.679,-401.496"/>
<path fill="none" stroke="black" d="M196.679,-399.496C190.411,-381.324 183.399,-361.152 177.54,-344.34"/>
<polygon fill="#e72222" stroke="black" points="180.836,-343.16 174.238,-334.869 174.226,-345.464 180.836,-343.16"/>
</g>
<!-- janus_const&#45;&gt;janus_devices_p11 -->
<g id="edge7" class="edge"><title>janus_const&#45;&gt;janus_devices_p11</title><style>.edge>path:hover{stroke-width:8}</style>
<path fill="none" stroke="black" d="M189.21,-466.03C195.676,-455.691 203.974,-441.991 210.679,-429.487 243.927,-367.488 277.908,-292.81 297.046,-249.493"/>
<polygon fill="#e72222" stroke="black" points="300.302,-250.784 301.127,-240.222 293.895,-247.964 300.302,-250.784"/>
</g>
<!-- janus_widgets_log&#45;&gt;janus_applications_xanes_main -->
<g id="edge36" class="edge"><title>janus_widgets_log&#45;&gt;janus_applications_xanes_main</title><style>.edge>path:hover{stroke-width:8}</style>
<path fill="none" stroke="black" d="M1043.98,-282.581C1026.51,-264.049 1001.37,-237.239 979.679,-213.53"/>
</g>
<!-- janus_widgets_plot&#45;&gt;janus_applications_xanes_main -->
<g id="edge37" class="edge"><title>janus_widgets_plot&#45;&gt;janus_applications_xanes_main</title><style>.edge>path:hover{stroke-width:8}</style>
<path fill="none" stroke="black" d="M552.931,-287.219C558.978,-283.725 565.43,-280.297 571.679,-277.522 632.734,-250.416 712.027,-280.19 707.679,-213.53"/>
<path fill="none" stroke="black" d="M707.679,-211.53C706.701,-196.526 699.356,-194.127 688.679,-183.539 668.198,-163.228 622.722,-173.788 634.679,-147.539"/>
</g>
<!-- janus_devices_connector&#45;&gt;janus_devices_generic -->
<g id="edge23" class="edge"><title>janus_devices_connector&#45;&gt;janus_devices_generic</title><style>.edge>path:hover{stroke-width:8}</style>
<path fill="none" stroke="black" d="M180.577,-279.401C186.589,-269.525 193.524,-258.135 199.918,-247.633"/>
<polygon fill="#bc2f2f" stroke="black" points="202.918,-249.434 205.129,-239.073 196.939,-245.794 202.918,-249.434"/>
</g>
<!-- janus_devices_connector&#45;&gt;janus_devices_fluorescence -->
<g id="edge22" class="edge"><title>janus_devices_connector&#45;&gt;janus_devices_fluorescence</title><style>.edge>path:hover{stroke-width:8}</style>
<path fill="none" stroke="black" d="M147.966,-279.891C141.627,-270.173 134.296,-258.934 127.49,-248.5"/>
<polygon fill="#bc2f2f" stroke="black" points="130.324,-246.439 121.93,-239.976 124.462,-250.264 130.324,-246.439"/>
</g>
<!-- janus_devices_connector&#45;&gt;janus_devices_p11 -->
<g id="edge24" class="edge"><title>janus_devices_connector&#45;&gt;janus_devices_p11</title><style>.edge>path:hover{stroke-width:8}</style>
<path fill="none" stroke="black" d="M195.345,-286.454C218.571,-272.02 250.59,-252.12 275.313,-236.754"/>
<polygon fill="#bc2f2f" stroke="black" points="277.416,-239.568 284.061,-231.317 273.72,-233.623 277.416,-239.568"/>
</g>
<!-- janus_devices_p11&#45;&gt;janus_applications_xanes_main -->
<g id="edge29" class="edge"><title>janus_devices_p11&#45;&gt;janus_applications_xanes_main</title><style>.edge>path:hover{stroke-width:8}</style>
<path fill="none" stroke="black" d="M339.969,-192.397C345.913,-188.963 352.33,-185.772 358.679,-183.539 417.029,-163.018 612.106,-205.126 634.679,-147.539"/>
</g>
</g>
</svg>
